HIERARCHY
ROOT Hips
{
  OFFSET 76.347 92.6806 -49.6304
  CHANNELS 6 Xposition Yposition Zposition Zrotation Xrotation Yrotation
  JOINT RightUpLeg
  {
    OFFSET -9.2536 -1.56971 -0.009835
    CHANNELS 3 Zrotation Xrotation Yrotation
    JOINT RightLeg
    {
      OFFSET 0.003613 -41.8721 0.033096
      CHANNELS 3 Zrotation Xrotation Yrotation
      JOINT RightFoot
      {
        OFFSET 0.190023 -41.7536 -0.162077
        CHANNELS 3 Zrotation Xrotation Yrotation
        End Site
        {
          OFFSET 0 -7.69 17.5
        }
      }
    }
  }
  JOINT LeftUpLeg
  {
    OFFSET 9.25993 -1.60807 -0.003591
    CHANNELS 3 Zrotation Xrotation Yrotation
    JOINT LeftLeg
    {
      OFFSET 0.056181 -41.8768 -0.046918
      CHANNELS 3 Zrotation Xrotation Yrotation
      JOINT LeftFoot
      {
        OFFSET 0.206009 -42.0177 -0.454554
        CHANNELS 3 Zrotation Xrotation Yrotation
        End Site
        {
          OFFSET 0 -7.69 17.5
        }
      }
    }
  }
  JOINT Spine
  {
    OFFSET 0.055174 14.3087 0.014143
    CHANNELS 3 Zrotation Xrotation Yrotation
    JOINT Spine1
    {
      OFFSET 0.013927 9.70629 0.00545
      CHANNELS 3 Zrotation Xrotation Yrotation
      JOINT Spine2
      {
        OFFSET 0.014023 10.1242 0.014512
        CHANNELS 3 Zrotation Xrotation Yrotation
        JOINT Spine3
        {
          OFFSET 0.012086 9.7191 0.009001
          CHANNELS 3 Zrotation Xrotation Yrotation
          JOINT Neck
          {
            OFFSET 0.131707 10.3859 0.054297
            CHANNELS 3 Zrotation Xrotation Yrotation
            JOINT Head
            {
              OFFSET -0.005552 9.48088 0.122183
              CHANNELS 3 Zrotation Xrotation Yrotation
              End Site
              {
                OFFSET 0 15.95 0
              }
            }
          }
          JOINT RightShoulder
          {
            OFFSET -3.20137 6.92944 0.018295
            CHANNELS 3 Zrotation Xrotation Yrotation
            JOINT RightArm
            {
              OFFSET -12.7595 0.009634 0.00435
              CHANNELS 3 Zrotation Xrotation Yrotation
              JOINT RightForeArm
              {
                OFFSET -26.5076 -0.004773 -0.015002
                CHANNELS 3 Zrotation Xrotation Yrotation
                JOINT RightHand
                {
                  OFFSET -26.002 -5.9e-05 -0.011656
                  CHANNELS 3 Zrotation Xrotation Yrotation
                  JOINT RightHandThumb1
                  {
                    OFFSET -2.48905 0.190105 3.12053
                    CHANNELS 3 Zrotation Xrotation Yrotation
                    JOINT RightHandThumb2
                    {
                      OFFSET -3.68274 0 0
                      CHANNELS 3 Zrotation Xrotation Yrotation
                      JOINT RightHandThumb3
                      {
                        OFFSET -2.55832 0 0
                        CHANNELS 3 Zrotation Xrotation Yrotation
                        End Site
                        {
                          OFFSET -2.194 0 0
                        }
                      }
                    }
                  }
                  JOINT RightInHandIndex
                  {
                    OFFSET -3.22368 0.508421 1.97842
                    CHANNELS 3 Zrotation Xrotation Yrotation
                    JOINT RightHandIndex1
                    {
                      OFFSET -5.21684 -0.091368 0.999158
                      CHANNELS 3 Zrotation Xrotation Yrotation
                      JOINT RightHandIndex2
                      {
                        OFFSET -3.61937 0 0
                        CHANNELS 3 Zrotation Xrotation Yrotation
                        JOINT RightHandIndex3
                        {
                          OFFSET -2.0521 0 0
                          CHANNELS 3 Zrotation Xrotation Yrotation
                          End Site
                          {
                            OFFSET -1.805 0 0
                          }
                        }
                      }
                    }
                  }
                  JOINT RightInHandMiddle
                  {
                    OFFSET -3.38211 0.517263 0.756737
                    CHANNELS 3 Zrotation Xrotation Yrotation
                    JOINT RightHandMiddle1
                    {
                      OFFSET -5.17411 -0.084 0.313895
                      CHANNELS 3 Zrotation Xrotation Yrotation
                      JOINT RightHandMiddle2
                      {
                        OFFSET -3.94947 0 0
                        CHANNELS 3 Zrotation Xrotation Yrotation
                        JOINT RightHandMiddle3
                        {
                          OFFSET -2.47579 0 0
                          CHANNELS 3 Zrotation Xrotation Yrotation
                          End Site
                          {
                            OFFSET -1.975 0 0
                          }
                        }
                      }
                    }
                  }
                  JOINT RightInHandRing
                  {
                    OFFSET -3.36516 0.537895 -0.128947
                    CHANNELS 3 Zrotation Xrotation Yrotation
                    JOINT RightHandRing1
                    {
                      OFFSET -4.63474 -0.022105 -0.478947
                      CHANNELS 3 Zrotation Xrotation Yrotation
                      JOINT RightHandRing2
                      {
                        OFFSET -3.44238 0 0
                        CHANNELS 3 Zrotation Xrotation Yrotation
                        JOINT RightHandRing3
                        {
                          OFFSET -2.3881 0 0
                          CHANNELS 3 Zrotation Xrotation Yrotation
                          End Site
                          {
                            OFFSET -1.857 0 0
                          }
                        }
                      }
                    }
                  }
                  JOINT RightInHandPinky
                  {
                    OFFSET -3.16105 0.469368 -1.20179
                    CHANNELS 3 Zrotation Xrotation Yrotation
                    JOINT RightHandPinky1
                    {
                      OFFSET -4.14105 -0.022105 -1.09053
                      CHANNELS 3 Zrotation Xrotation Yrotation
                      JOINT RightHandPinky2
                      {
                        OFFSET -2.75653 0 0
                        CHANNELS 3 Zrotation Xrotation Yrotation
                        JOINT RightHandPinky3
                        {
                          OFFSET -1.74189 0 0
                          CHANNELS 3 Zrotation Xrotation Yrotation
                          End Site
                          {
                            OFFSET -1.645 0 0
                          }
                        }
                      }
                    }
                  }
                }
              }
            }
          }
          JOINT LeftShoulder
          {
            OFFSET 3.20143 6.91127 -0.000395
            CHANNELS 3 Zrotation Xrotation Yrotation
            JOINT LeftArm
            {
              OFFSET 12.7779 -0.028682 -0.037301
              CHANNELS 3 Zrotation Xrotation Yrotation
              JOINT LeftForeArm
              {
                OFFSET 26.4982 -0.116492 -0.017681
                CHANNELS 3 Zrotation Xrotation Yrotation
                JOINT LeftHand
                {
                  OFFSET 26.0046 -0.058588 -0.01331
                  CHANNELS 3 Zrotation Xrotation Yrotation
                  JOINT LeftHandThumb1
                  {
                    OFFSET 2.48905 0.190105 3.12053
                    CHANNELS 3 Zrotation Xrotation Yrotation
                    JOINT LeftHandThumb2
                    {
                      OFFSET 3.68274 0 0
                      CHANNELS 3 Zrotation Xrotation Yrotation
                      JOINT LeftHandThumb3
                      {
                        OFFSET 2.55832 0 0
                        CHANNELS 3 Zrotation Xrotation Yrotation
                        End Site
                        {
                          OFFSET 2.194 0 0
                        }
                      }
                    }
                  }
                  JOINT LeftInHandIndex
                  {
                    OFFSET 3.22368 0.508421 1.97842
                    CHANNELS 3 Zrotation Xrotation Yrotation
                    JOINT LeftHandIndex1
                    {
                      OFFSET 5.21684 -0.091368 0.999158
                      CHANNELS 3 Zrotation Xrotation Yrotation
                      JOINT LeftHandIndex2
                      {
                        OFFSET 3.61937 0 0
                        CHANNELS 3 Zrotation Xrotation Yrotation
                        JOINT LeftHandIndex3
                        {
                          OFFSET 2.0521 0 0
                          CHANNELS 3 Zrotation Xrotation Yrotation
                          End Site
                          {
                            OFFSET 1.805 0 0
                          }
                        }
                      }
                    }
                  }
                  JOINT LeftInHandMiddle
                  {
                    OFFSET 3.38211 0.517263 0.756737
                    CHANNELS 3 Zrotation Xrotation Yrotation
                    JOINT LeftHandMiddle1
                    {
                      OFFSET 5.17411 -0.084 0.313895
                      CHANNELS 3 Zrotation Xrotation Yrotation
                      JOINT LeftHandMiddle2
                      {
                        OFFSET 3.94947 0 0
                        CHANNELS 3 Zrotation Xrotation Yrotation
                        JOINT LeftHandMiddle3
                        {
                          OFFSET 2.47579 0 0
                          CHANNELS 3 Zrotation Xrotation Yrotation
                          End Site
                          {
                            OFFSET 1.975 0 0
                          }
                        }
                      }
                    }
                  }
                  JOINT LeftInHandRing
                  {
                    OFFSET 3.36516 0.537895 -0.128947
                    CHANNELS 3 Zrotation Xrotation Yrotation
                    JOINT LeftHandRing1
                    {
                      OFFSET 4.63474 -0.022105 -0.478947
                      CHANNELS 3 Zrotation Xrotation Yrotation
                      JOINT LeftHandRing2
                      {
                        OFFSET 3.44238 0 0
                        CHANNELS 3 Zrotation Xrotation Yrotation
                        JOINT LeftHandRing3
                        {
                          OFFSET 2.3881 0 0
                          CHANNELS 3 Zrotation Xrotation Yrotation
                          End Site
                          {
                            OFFSET 1.857 0 0
                          }
                        }
                      }
                    }
                  }
                  JOINT LeftInHandPinky
                  {
                    OFFSET 3.16105 0.469368 -1.20179
                    CHANNELS 3 Zrotation Xrotation Yrotation
                    JOINT LeftHandPinky1
                    {
                      OFFSET 4.14105 -0.022105 -1.09053
                      CHANNELS 3 Zrotation Xrotation Yrotation
                      JOINT LeftHandPinky2
                      {
                        OFFSET 2.75653 0 0
                        CHANNELS 3 Zrotation Xrotation Yrotation
                        JOINT LeftHandPinky3
                        {
                          OFFSET 1.74189 0 0
                          CHANNELS 3 Zrotation Xrotation Yrotation
                          End Site
                          {
                            OFFSET 1.645 0 0
                          }
                        }
                      }
                    }
                  }
                }
              }
            }
          }
        }
      }
    }
  }
}
MOTION
Frames: 3
Frame Time: 0.00833333
2.334869400000000041e+03 9.014949999999998909e+01 -6.278090000000000970e+01 2.592999999999999972e+01 -1.754650000000000531e+01 -1.570080000000000098e+02 3.565970000000000084e+01 -3.113889999999999603e+01 5.325310000000000343e+01 -5.695969999999999978e+00 1.149400000000000155e+01 1.342300000000000004e+01 4.741999999999999993e+00 5.183679999999999843e+00 6.014379999999999882e+01 3.684369999999999123e+01 -1.502999999999999936e+01 1.981609999999999872e+01 -1.041239999999999943e+00 1.883399999999999963e+01 2.375590000000000046e+01 -2.247369999999999735e+01 1.371490000000000009e+01 1.238600000000000136e+02 -8.136960000000000193e+00 8.208539999999999281e+00 5.453870000000000662e-01 -2.021349999999999980e+00 2.064270000000000049e+00 -1.582119999999999638e-01 -3.333359999999999879e+00 3.383240000000000247e+00 -3.844540000000000735e-01 -1.741280000000000161e+00 -2.352210000000000356e+00 1.827380000000000448e+00 -1.892760000000000531e+01 -3.857179999999999609e+01 6.005560000000000542e+01 -2.312120000000000175e+01 6.313959999999999795e+00 3.533879999999999200e+01 5.618310000000000137e+00 -2.126019999999999577e+00 1.328519999999999923e+00 7.342040000000000077e+01 -1.892880000000000251e+01 1.707440000000000069e+01 3.750269999999999015e+01 -3.873210000000000974e+01 1.140550000000000068e+02 -1.394290000000000163e+01 -1.143140000000000001e+01 1.316760000000000019e+01 2.818400000000000105e+01 1.072940000000000005e+01 1.915919999999999845e+01 3.577670000000000408e-15 1.113190000000000089e-14 -1.000000000000000000e+01 4.283610000000000200e-15 -3.180549999999999982e-15 -1.000000000000000000e+01 -3.180550000000000376e-15 0.000000000000000000e+00 -6.361109999999999741e-15 1.998179999999999978e+01 8.718970000000000331e-01 2.396399999999999864e+00 2.400000000000000000e+01 -5.565970000000000787e-15 -1.272219999999999677e-14 2.000000000000000000e+01 -1.590279999999999880e-15 -1.590280000000000116e-14 -3.180550000000000376e-15 0.000000000000000000e+00 -6.361109999999999741e-15 2.000000000000000000e+01 -7.951389999999999226e-15 -3.180550000000001165e-15 2.400000000000000000e+01 4.770829999999999467e-15 0.000000000000000000e+00 2.000000000000000000e+01 1.590279999999999880e-15 -1.272220000000000308e-14 -3.180550000000000376e-15 0.000000000000000000e+00 -6.361109999999999741e-15 1.997479999999999833e+01 -1.025649999999999951e+00 -2.819380000000000219e+00 2.400000000000000000e+01 -3.578119999999999853e-15 -3.180549999999999193e-15 2.000000000000000000e+01 -1.590279999999999880e-15 -1.590280000000000116e-14 -3.180550000000000376e-15 0.000000000000000000e+00 -6.361109999999999741e-15 1.978150000000000119e+01 -3.009479999999999933e+00 -8.305149999999999366e+00 2.400000000000000000e+01 -1.987850000000000145e-15 -1.908330000000000462e-14 2.000000000000000000e+01 -3.180550000000000771e-15 -2.226390000000000270e-14 -1.810000000000000142e+01 -2.053630000000000067e+01 -2.032310000000000016e+01 4.285300000000000331e+00 4.417250000000000654e+01 -1.190310000000000059e+02 2.099600000000000222e+01 2.115800000000000125e+01 -5.212030000000000030e+01 2.532930000000000348e+01 6.764299999999998647e+01 3.135889999999999844e+01 -2.818400000000000105e+01 1.072940000000000005e+01 -1.915919999999999845e+01 1.121640000000002188e-15 -6.361109999999998163e-15 1.000000000000000000e+01 4.421359999999999727e-15 -6.758679999999998824e-15 1.000000000000000000e+01 3.180549999999999587e-15 3.975689999999999725e-15 -1.590280000000000274e-15 -1.998179999999999978e+01 8.718970000000000331e-01 -2.396399999999999864e+00 -2.400000000000000000e+01 -1.789059999999999927e-15 3.180550000000000771e-15 -2.000000000000000000e+01 7.951389999999999226e-16 -1.113189999999999931e-14 3.180549999999999587e-15 3.975689999999999725e-15 -1.590280000000000274e-15 -2.000000000000000000e+01 4.373260000000001174e-15 1.590280000000001063e-15 -2.400000000000000000e+01 1.391490000000000055e-15 3.180550000000002348e-15 -2.000000000000000000e+01 0.000000000000000000e+00 1.590279999999998696e-15 3.180549999999999587e-15 3.975689999999999725e-15 -1.590280000000000274e-15 -1.997479999999999833e+01 -1.025649999999999951e+00 2.819380000000000219e+00 -2.400000000000000000e+01 -1.789059999999999532e-15 5.168400000000002494e-15 -2.000000000000000000e+01 -1.192710000000000403e-15 -1.192710000000000403e-15 3.180549999999999587e-15 3.975689999999999725e-15 -1.590280000000000274e-15 -1.978150000000000119e+01 -3.009479999999999933e+00 8.305149999999999366e+00 -2.400000000000000000e+01 3.851449999999999899e-15 1.222529999999999929e-14 -2.000000000000000000e+01 -4.447810000000000778e-15 6.460499999999996806e-15
2.334869099999999889e+03 9.014950000000000330e+01 -6.277060000000000173e+01 2.591619999999999635e+01 -1.758729999999999549e+01 -1.570319999999999823e+02 3.565250000000000341e+01 -3.115290000000000248e+01 5.329820000000000135e+01 -5.711970000000000880e+00 1.150040000000000262e+01 1.337960000000000171e+01 4.749559999999998894e+00 5.175220000000001264e+00 6.018540000000000134e+01 3.681260000000000332e+01 -1.504369999999999763e+01 1.978369999999999962e+01 -1.060299999999999798e+00 1.883419999999999916e+01 2.384829999999999828e+01 -2.244679999999999609e+01 1.366919999999999824e+01 1.238520000000000181e+02 -8.153269999999999129e+00 8.208679999999997534e+00 5.723790000000001932e-01 -2.025549999999999962e+00 2.065699999999999648e+00 -1.518970000000000597e-01 -3.337810000000000166e+00 3.385009999999999852e+00 -3.741490000000001759e-01 -1.742220000000000324e+00 -2.352370000000000072e+00 1.826240000000000308e+00 -1.908820000000000050e+01 -3.861719999999999686e+01 5.995309999999999917e+01 -2.310140000000000171e+01 6.260980000000000878e+00 3.535280000000000200e+01 5.629139999999999588e+00 -2.142110000000000181e+00 1.340980000000000061e+00 7.339819999999998856e+01 -1.885140000000000526e+01 1.707079999999999842e+01 3.753119999999999834e+01 -3.879219999999999402e+01 1.140909999999999798e+02 -1.394509999999999650e+01 -1.144570000000000221e+01 1.314899999999999913e+01 2.818400000000000105e+01 1.072940000000000005e+01 1.915919999999999845e+01 6.739649999999999775e-15 1.590280000000000274e-15 -1.000000000000000000e+01 3.442389999999999519e-15 -7.951389999999999226e-15 -1.000000000000000000e+01 -6.361110000000000530e-15 0.000000000000000000e+00 -3.180549999999999982e-15 1.998179999999999978e+01 8.718970000000000331e-01 2.396399999999999864e+00 2.400000000000000000e+01 -3.975690000000008402e-16 3.180549999999999982e-15 2.000000000000000000e+01 6.361109999999999741e-15 3.180549999999999193e-15 -6.361110000000000530e-15 0.000000000000000000e+00 -3.180549999999999982e-15 2.000000000000000000e+01 1.272219999999999993e-14 -9.541660000000000512e-15 2.400000000000000000e+01 6.758679999999998824e-15 6.361110000000001319e-15 2.000000000000000000e+01 -3.180549999999999982e-15 9.541660000000000512e-15 -6.361110000000000530e-15 0.000000000000000000e+00 -3.180549999999999982e-15 1.997479999999999833e+01 -1.025649999999999951e+00 -2.819380000000000219e+00 2.400000000000000000e+01 -1.590279999999999880e-15 9.541660000000000512e-15 2.000000000000000000e+01 -1.590279999999999880e-15 9.541660000000000512e-15 -6.361110000000000530e-15 0.000000000000000000e+00 -3.180549999999999982e-15 1.978150000000000119e+01 -3.009479999999999933e+00 -8.305149999999999366e+00 2.400000000000000000e+01 5.168400000000000127e-15 6.361109999999998163e-15 2.000000000000000000e+01 3.180549999999999982e-15 1.590280000000000116e-14 -1.809479999999999933e+01 -2.053109999999999857e+01 -2.030779999999999674e+01 4.275630000000000486e+00 4.416799999999999216e+01 -1.190049999999999812e+02 2.100890000000000057e+01 2.118529999999999802e+01 -5.211590000000001055e+01 2.550219999999999487e+01 6.762529999999999575e+01 3.127200000000000557e+01 -2.818400000000000105e+01 1.072940000000000005e+01 -1.915919999999999845e+01 -2.949210000000002814e-15 -1.590280000000000274e-15 1.000000000000000000e+01 -2.879110000000000353e-15 -1.987850000000000145e-15 1.000000000000000000e+01 0.000000000000000000e+00 3.975690000000002486e-16 2.782990000000000677e-15 -1.998179999999999978e+01 8.718970000000000331e-01 -2.396399999999999864e+00 -2.400000000000000000e+01 3.578119999999999853e-15 3.975690000000002091e-15 -2.000000000000000000e+01 3.578119999999999853e-15 -5.565969999999999999e-15 0.000000000000000000e+00 3.975690000000002486e-16 2.782990000000000677e-15 -2.000000000000000000e+01 1.192709999999999614e-15 1.987849999999998568e-15 -2.400000000000000000e+01 -9.939230000000000383e-16 6.361109999999999741e-15 -2.000000000000000000e+01 1.490890000000000053e-15 -7.156249999999999484e-15 0.000000000000000000e+00 3.975690000000002486e-16 2.782990000000000677e-15 -1.997479999999999833e+01 -1.025649999999999951e+00 2.819380000000000219e+00 -2.400000000000000000e+01 1.391489999999999266e-15 3.578119999999999853e-15 -2.000000000000000000e+01 -4.969620000000005208e-16 -4.373260000000001174e-15 0.000000000000000000e+00 3.975690000000002486e-16 2.782990000000000677e-15 -1.978150000000000119e+01 -3.009479999999999933e+00 8.305149999999999366e+00 -2.400000000000000000e+01 5.168400000000000127e-15 -5.466580000000001356e-15 -2.000000000000000000e+01 -4.870220000000000477e-15 6.758679999999998824e-15
2.334868800000000192e+03 9.014969999999999573e+01 -6.276069999999999283e+01 2.590340000000000131e+01 -1.762619999999999720e+01 -1.570370000000000061e+02 3.563620000000000942e+01 -3.118080000000000496e+01 5.330239999999999156e+01 -5.723489999999999966e+00 1.150480000000000125e+01 1.335480000000000089e+01 4.762419999999998765e+00 5.177039999999999864e+00 6.023319999999998942e+01 3.680199999999999960e+01 -1.505910000000000082e+01 1.973460000000000036e+01 -1.106800000000000228e+00 1.883099999999999952e+01 2.395250000000000412e+01 -2.241850000000000520e+01 1.362030000000000207e+01 1.238449999999999704e+02 -8.162749999999999062e+00 8.211250000000001492e+00 5.939720000000001665e-01 -2.028459999999999930e+00 2.066939999999999777e+00 -1.467970000000000663e-01 -3.341359999999999886e+00 3.386690000000000200e+00 -3.655139999999998945e-01 -1.743339999999999890e+00 -2.352529999999999788e+00 1.825389999999999846e+00 -1.926639999999999731e+01 -3.865280000000000626e+01 5.982549999999999812e+01 -2.308510000000000062e+01 6.204499999999999460e+00 3.536240000000000094e+01 5.635449999999999626e+00 -2.162859999999999339e+00 1.349569999999999936e+00 7.337300000000000466e+01 -1.879419999999999646e+01 1.706960000000000477e+01 3.755570000000000874e+01 -3.884350000000000591e+01 1.141060000000000088e+02 -1.394399999999999906e+01 -1.146320000000000050e+01 1.313660000000000139e+01 2.818400000000000105e+01 1.072940000000000005e+01 1.915919999999999845e+01 1.053989999999998811e-15 -3.180549999999999982e-15 -1.000000000000000000e+01 -1.053990000000000389e-15 3.180549999999999982e-15 -1.000000000000000000e+01 -3.180549999999999587e-15 0.000000000000000000e+00 3.180550000000000771e-15 1.998179999999999978e+01 8.718970000000000331e-01 2.396399999999999864e+00 2.400000000000000000e+01 -5.764760000000000217e-15 -1.272220000000000151e-14 2.000000000000000000e+01 -4.770830000000001045e-15 -3.180550000000000771e-15 -3.180549999999999587e-15 0.000000000000000000e+00 3.180550000000000771e-15 2.000000000000000000e+01 -4.770829999999998678e-15 -6.361109999999998163e-15 2.400000000000000000e+01 -3.180549999999999982e-15 0.000000000000000000e+00 2.000000000000000000e+01 4.770830000000000256e-15 1.272219999999999993e-14 -3.180549999999999587e-15 0.000000000000000000e+00 3.180550000000000771e-15 1.997479999999999833e+01 -1.025649999999999951e+00 -2.819380000000000219e+00 2.400000000000000000e+01 7.951390000000003171e-16 -6.361109999999998163e-15 2.000000000000000000e+01 4.770829999999999467e-15 1.908330000000000147e-14 -3.180549999999999587e-15 0.000000000000000000e+00 3.180550000000000771e-15 1.978150000000000119e+01 -3.009479999999999933e+00 -8.305149999999999366e+00 2.400000000000000000e+01 2.385420000000000017e-15 -1.590280000000000116e-14 2.000000000000000000e+01 1.590280000000000077e-15 1.590279999999999801e-14 -1.810559999999999548e+01 -2.052459999999999951e+01 -2.029860000000000397e+01 4.249750000000000583e+00 4.418150000000000688e+01 -1.189699999999999989e+02 2.102530000000000143e+01 2.124019999999999797e+01 -5.210810000000000741e+01 2.565619999999999479e+01 6.759649999999999181e+01 3.121130000000000138e+01 -2.818400000000000105e+01 1.072940000000000005e+01 -1.915919999999999845e+01 6.178830000000001047e-15 1.590280000000000274e-15 1.000000000000000000e+01 -7.010220000000048661e-17 3.975690000000000513e-16 1.000000000000000000e+01 -6.361109999999999741e-15 7.951390000000005143e-16 2.385419999999999622e-15 -1.998179999999999978e+01 8.718970000000000331e-01 -2.396399999999999864e+00 -2.400000000000000000e+01 -1.590279999999999485e-15 -3.180550000000000771e-15 -2.000000000000000000e+01 -9.939230000000000383e-16 2.544439999999999986e-14 -6.361109999999999741e-15 7.951390000000005143e-16 2.385419999999999622e-15 -2.000000000000000000e+01 -3.975689999999998541e-16 -2.385420000000000017e-15 -2.400000000000000000e+01 2.683589999999999890e-15 -1.590279999999999485e-15 -2.000000000000000000e+01 -6.261720000000001098e-15 2.305900000000000492e-14 -6.361109999999999741e-15 7.951390000000005143e-16 2.385419999999999622e-15 -1.997479999999999833e+01 -1.025649999999999951e+00 2.819380000000000219e+00 -2.400000000000000000e+01 -1.938150000000001330e-15 -7.951389999999999226e-15 -2.000000000000000000e+01 -1.391490000000000055e-15 1.073439999999999867e-14 -6.361109999999999741e-15 7.951390000000005143e-16 2.385419999999999622e-15 -1.978150000000000119e+01 -3.009479999999999933e+00 8.305149999999999366e+00 -2.400000000000000000e+01 4.969619999999989431e-17 -1.391490000000000844e-15 -2.000000000000000000e+01 4.199330000000001126e-15 -4.373260000000004329e-15
